<?xml version="1.0" encoding="utf-8"?>
<!-- Generator: Adobe Illustrator 22.1.0, SVG Export Plug-In . SVG Version: 6.00 Build 0)  -->
<!DOCTYPE svg PUBLIC "-//W3C//DTD SVG 1.1//EN" "http://www.w3.org/Graphics/SVG/1.1/DTD/svg11.dtd">
<svg version="1.1" id="Capa_1" xmlns="http://www.w3.org/2000/svg" xmlns:xlink="http://www.w3.org/1999/xlink" x="0px" y="0px"
	 width="321.6px" height="321.6px" viewBox="0 0 321.6 321.6" style="enable-background:new 0 0 321.6 321.6;" xml:space="preserve"
	>
<style type="text/css">
	.st0{fill:#512C2A;}
	.st1{fill:#D0944A;}
</style>
<g>
	<g id="c28_geolocalization">
		<path class="st0" d="M160.8,1.6C101.1,1.6,52.6,49.7,52.6,109c0,30.4,29.8,84.8,29.8,84.8L156.8,320l77.6-124.7
			c0,0,34.5-51.9,34.5-86.2C268.9,49.7,220.5,1.6,160.8,1.6z M160.3,168.2c-34.2,0-61.9-27.7-61.9-62c0-34.2,27.7-61.9,61.9-61.9
			c34.2,0,61.9,27.7,61.9,61.9C222.2,140.5,194.5,168.2,160.3,168.2z"/>
		<polygon class="st1" points="173.2,65.6 148.8,65.6 148.8,93.4 120.3,93.4 120.3,117.9 148.8,117.9 148.8,146.6 173.2,146.6 
			173.2,117.9 201.3,117.9 201.3,93.4 173.2,93.4 		"/>
	</g>
	<g id="Capa_1_146_">
	</g>
</g>
</svg>
