<?xml version="1.0" encoding="utf-8"?>
<!-- Generator: Adobe Illustrator 22.1.0, SVG Export Plug-In . SVG Version: 6.00 Build 0)  -->
<!DOCTYPE svg PUBLIC "-//W3C//DTD SVG 1.1//EN" "http://www.w3.org/Graphics/SVG/1.1/DTD/svg11.dtd">
<svg version="1.1" id="Capa_1" xmlns="http://www.w3.org/2000/svg" xmlns:xlink="http://www.w3.org/1999/xlink" x="0px" y="0px"
	 width="496px" height="496px" viewBox="0 0 496 496" style="enable-background:new 0 0 496 496;" xml:space="preserve">
<style type="text/css">
	.st0{stroke:#000000;stroke-width:0.75;stroke-miterlimit:10;}
</style>
<g>
	<g>
		<g>
			<path class="st0" d="M447.8,390.2c-5.4-32.2-28-58.7-59-69L320,298.2V288h-16v15l-11.9,47.7L259.8,312h-23.5l-32.3,38.8L192,303
				v-15h-16v10.2l-68.8,22.9c-31,10.3-53.6,36.8-59,69L30.6,496h434.9L447.8,390.2z M114.7,419.1l-7.4,59.2h-53L68.1,395
				c4.2-25.2,21.9-45.9,46.1-54l22.7-7.6V393c0,11.2-7.1,21-17.7,24.6L114.7,419.1z M270.9,478.3v-52l14.7-36.9l-14.2-5.7
				l-15.8,39.6v55h-15.3v-55l-15.8-39.6l-14.2,5.7l14.7,36.9v52h-98.4l6-48.1c14.3-6.8,23.5-21.1,23.5-37.2v-64.6l25.2-8.4
				l16.9,67.8l45.6-54.7h8.1l45.6,54.7l16.9-67.8l25.2,8.4V393c0,16.1,9.3,30.5,23.5,37.2l6,48.1H270.9z M389.7,478.3l-7.4-59.2
				l-4.6-1.5C367.1,414,360,404.2,360,393v-59.5l22.7,7.6c24.2,8.1,41.9,28.8,46.1,54l13.9,83.3H389.7z"/>
			<rect x="288" y="432" class="st0" width="64" height="16"/>
			<rect x="144" y="432" class="st0" width="64" height="16"/>
			<path class="st0" d="M112.3,178.7c1.3,19.3,16.2,34.7,35.3,36.9c4.1,14,11.6,26.9,22.2,37.5l31.2,31.2
				c7.6,7.6,17.6,11.7,28.3,11.7h37.5c10.7,0,20.7-4.2,28.3-11.7l31.2-31.2c10.6-10.6,18.2-23.5,22.2-37.5c19-2.2,34-17.6,35.3-36.9
				c15.9-1.4,24.5-2.6,25.4-2.8l8.4-1.2l-1.7-8.3c-0.3-1.7-8.9-41.7-48.9-60C360.1,46.4,308.9,0,248,0S135.9,46.4,129,106.4
				c-40,18.4-48.5,58.3-48.9,60l-1.7,8.3l8.4,1.2C87.7,176,96.3,177.2,112.3,178.7z M128.4,180c4.8,0.4,10,0.7,15.6,1v9.8
				c0,2.6,0.2,5.2,0.4,7.8C136.1,195.9,129.9,188.8,128.4,180z M330,192.6c0,17.9-7,34.8-19.6,47.4l-29.1,29.1
				c-4.2,4.2-9.8,6.6-15.8,6.6h-34.9c-6,0-11.6-2.3-15.8-6.6L185.7,240C173,227.4,166,210.5,166,192.6v-8.3
				c22.2,1.1,49.5,1.9,82,1.9s59.8-0.8,82-1.9V192.6z M351.6,198.6c0.2-2.6,0.4-5.2,0.4-7.8V181c5.6-0.3,10.8-0.7,15.6-1
				C366.1,188.8,359.9,195.9,351.6,198.6z M343.8,99.9c-6.6,1-18.1,2.5-33.9,3.7c-2.3-38.3-18.6-63.5-32.4-78
				C312,34.7,338.7,63.7,343.8,99.9z M248,24c10,7.1,38.3,31.6,41.1,80.5c-11.9,0.6-25.7,1.1-41.1,1.1c-15.5,0-29.2-0.4-41.1-1.1
				C209.7,55.6,238,31.1,248,24z M219.4,25.6c-13.8,14.5-30.1,39.6-32.4,78c-15.8-1.2-27.3-2.7-33.9-3.7
				C158.3,63.7,185,34.7,219.4,25.6z M146.2,120.3c9,1.6,44.2,7.1,101.8,7.1s92.8-5.5,101.8-7.1c21.6,9.4,31.3,27.3,35.2,37.5
				c-18.2,2-65.3,6.2-137,6.2c-71.7,0-118.7-4.2-137-6.2C115,147.6,124.8,129.7,146.2,120.3z"/>
		</g>
	</g>
</g>
</svg>
