<?xml version="1.0" encoding="utf-8"?>
<!-- Generator: Adobe Illustrator 22.1.0, SVG Export Plug-In . SVG Version: 6.00 Build 0)  -->
<!DOCTYPE svg PUBLIC "-//W3C//DTD SVG 1.1//EN" "http://www.w3.org/Graphics/SVG/1.1/DTD/svg11.dtd">
<svg version="1.1" id="Capa_1" xmlns="http://www.w3.org/2000/svg" xmlns:xlink="http://www.w3.org/1999/xlink" x="0px" y="0px"
	 width="511.6px" height="511.6px" viewBox="0 0 511.6 511.6" style="enable-background:new 0 0 511.6 511.6;" xml:space="preserve"
	>
<g>
	<g>
		<path d="M64,164.5H9.1c-2.5,0-4.6,0.9-6.4,2.7c-1.8,1.8-2.7,4-2.7,6.4v54.8c0,2.5,0.9,4.6,2.7,6.4c1.8,1.8,3.9,2.7,6.4,2.7H64
			c2.5,0,4.6-0.9,6.4-2.7c1.8-1.8,2.7-4,2.7-6.4v-54.8c0-2.5-0.9-4.6-2.7-6.4C68.6,165.4,66.4,164.5,64,164.5z"/>
		<path d="M64,383.7H9.1c-2.5,0-4.6,0.9-6.4,2.7c-1.8,1.8-2.7,3.9-2.7,6.4v54.8c0,2.5,0.9,4.6,2.7,6.4c1.8,1.8,3.9,2.7,6.4,2.7H64
			c2.5,0,4.6-0.9,6.4-2.7c1.8-1.8,2.7-3.9,2.7-6.4v-54.8c0-2.5-0.9-4.6-2.7-6.4C68.6,384.6,66.4,383.7,64,383.7z"/>
		<path d="M64,274.1H9.1c-2.5,0-4.6,0.9-6.4,2.7s-2.7,4-2.7,6.4V338c0,2.5,0.9,4.6,2.7,6.4c1.8,1.8,3.9,2.7,6.4,2.7H64
			c2.5,0,4.6-0.9,6.4-2.7c1.8-1.8,2.7-3.9,2.7-6.4v-54.8c0-2.5-0.9-4.6-2.7-6.4C68.6,275,66.4,274.1,64,274.1z"/>
		<path d="M64,54.8H9.1c-2.5,0-4.6,0.9-6.4,2.7S0,61.5,0,64v54.8c0,2.5,0.9,4.6,2.7,6.4s3.9,2.7,6.4,2.7H64c2.5,0,4.6-0.9,6.4-2.7
			c1.8-1.8,2.7-3.9,2.7-6.4V64c0-2.5-0.9-4.6-2.7-6.4C68.6,55.7,66.4,54.8,64,54.8z"/>
		<path d="M502.5,383.7H118.8c-2.5,0-4.6,0.9-6.4,2.7c-1.8,1.8-2.7,3.9-2.7,6.4v54.8c0,2.5,0.9,4.6,2.7,6.4c1.8,1.8,3.9,2.7,6.4,2.7
			h383.7c2.5,0,4.6-0.9,6.4-2.7c1.8-1.8,2.7-3.9,2.7-6.4v-54.8c0-2.5-0.9-4.6-2.7-6.4C507.1,384.6,505,383.7,502.5,383.7z"/>
		<path d="M502.5,274.1H118.8c-2.5,0-4.6,0.9-6.4,2.7s-2.7,4-2.7,6.4V338c0,2.5,0.9,4.6,2.7,6.4c1.8,1.8,3.9,2.7,6.4,2.7h383.7
			c2.5,0,4.6-0.9,6.4-2.7c1.8-1.8,2.7-3.9,2.7-6.4v-54.8c0-2.5-0.9-4.6-2.7-6.4C507.1,275,505,274.1,502.5,274.1z"/>
		<path d="M508.9,57.5c-1.8-1.8-3.9-2.7-6.4-2.7H118.8c-2.5,0-4.6,0.9-6.4,2.7s-2.7,3.9-2.7,6.4v54.8c0,2.5,0.9,4.6,2.7,6.4
			s3.9,2.7,6.4,2.7h383.7c2.5,0,4.6-0.9,6.4-2.7c1.8-1.8,2.7-3.9,2.7-6.4V64C511.6,61.5,510.7,59.3,508.9,57.5z"/>
		<path d="M502.5,164.5H118.8c-2.5,0-4.6,0.9-6.4,2.7c-1.8,1.8-2.7,4-2.7,6.4v54.8c0,2.5,0.9,4.6,2.7,6.4c1.8,1.8,3.9,2.7,6.4,2.7
			h383.7c2.5,0,4.6-0.9,6.4-2.7c1.8-1.8,2.7-4,2.7-6.4v-54.8c0-2.5-0.9-4.6-2.7-6.4C507.1,165.4,505,164.5,502.5,164.5z"/>
	</g>
</g>
</svg>
