<?xml version="1.0" encoding="utf-8"?>
<!-- Generator: Adobe Illustrator 22.1.0, SVG Export Plug-In . SVG Version: 6.00 Build 0)  -->
<!DOCTYPE svg PUBLIC "-//W3C//DTD SVG 1.1//EN" "http://www.w3.org/Graphics/SVG/1.1/DTD/svg11.dtd">
<svg version="1.1" id="Layer_1" xmlns="http://www.w3.org/2000/svg" xmlns:xlink="http://www.w3.org/1999/xlink" x="0px" y="0px"
	 width="512px" height="512px" viewBox="0 0 512 512" style="enable-background:new 0 0 512 512;" xml:space="preserve">
<style type="text/css">
	.st0{fill:#512C2A;}
	.st1{fill:#D0944A;}
	.st2{fill:#EEE2CB;}
	.st3{fill:#CD3B23;}
	.st4{fill:#E6E6E6;}
</style>
<g>
	<g>
		<path class="st0" d="M256,0C138.4,0,42.7,95.7,42.7,213.3c0,57.3,22.4,111,63,151.4l142.7,144.1c2,2,4.7,3.2,7.6,3.2
			s5.6-1.1,7.6-3.2l142.6-144.1c40.7-40.4,63.1-94.2,63.1-151.4C469.3,95.7,373.6,0,256,0z M256,298.7c-47.1,0-85.3-38.3-85.3-85.3
			c0-47.1,38.3-85.3,85.3-85.3s85.3,38.3,85.3,85.3S303.1,298.7,256,298.7z"/>
	</g>
</g>
<circle class="st1" cx="257" cy="213" r="197"/>
<path class="st0" d="M257,392.5C158,392.5,77.5,312,77.5,213S158,33.5,257,33.5S436.5,114,436.5,213S356,392.5,257,392.5z"/>
<path class="st0" d="M95,213c0-96,75.8-174.7,170.8-179.3c-2.9-0.2-5.8-0.2-8.8-0.2C158,33.5,77.5,114,77.5,213
	S158,392.5,257.1,392.5c2.9,0,5.8-0.1,8.8-0.2C170.8,387.7,95,309,95,213z"/>
<g>
	<path class="st2" d="M257,147.4c-36.2,0-65.6,29.5-65.6,65.6c0,36.2,29.5,65.6,65.6,65.6s65.6-29.5,65.6-65.6
		C322.6,176.8,293.2,147.4,257,147.4z M257,261.2c-26.5,0-48.2-21.6-48.2-48.2s21.6-48.2,48.2-48.2s48.2,21.6,48.2,48.2
		S283.5,261.2,257,261.2z"/>
	<polygon class="st2" points="257,99.2 243.8,151.7 257,151.7 270.2,151.7 	"/>
	<polygon class="st2" points="257,326.8 243.8,274.3 257,274.3 270.2,274.3 	"/>
	<polygon class="st2" points="143.2,213 195.7,226.2 195.7,213 195.7,199.8 	"/>
	<polygon class="st2" points="370.8,213 318.3,226.2 318.3,213 318.3,199.8 	"/>
</g>
<polygon class="st3" points="365.3,104.6 241.5,197.5 257,213 272.5,228.5 "/>
<polygon class="st4" points="148.6,321.3 241.5,197.5 257,213 272.5,228.5 "/>
</svg>
