<?xml version="1.0" encoding="utf-8"?>
<!-- Generator: Adobe Illustrator 22.1.0, SVG Export Plug-In . SVG Version: 6.00 Build 0)  -->
<!DOCTYPE svg PUBLIC "-//W3C//DTD SVG 1.1//EN" "http://www.w3.org/Graphics/SVG/1.1/DTD/svg11.dtd">
<svg version="1.1" id="Layer_1" xmlns="http://www.w3.org/2000/svg" xmlns:xlink="http://www.w3.org/1999/xlink" x="0px" y="0px"
	 width="512px" height="512px" viewBox="0 0 512 512" style="enable-background:new 0 0 512 512;" xml:space="preserve">
<style type="text/css">
	.st0{fill:#D0944A;}
	.st1{fill:#D3C8B8;}
	.st2{fill:#512C2A;}
	.st3{fill:#EEE2CB;}
	.st4{fill:#CD3B23;}
	.st5{fill:#E6E6E6;}
</style>
<circle class="st0" cx="256" cy="256" r="256"/>
<path class="st1" d="M256,0c-1.3,0-2.7,0.1-4,0.1C391.5,2.2,504,116,504,256S391.5,509.8,252,511.9c1.3,0,2.7,0.1,4,0.1
	c141.4,0,256-114.6,256-256S397.4,0,256,0z"/>
<path class="st2" d="M256,489.2C127.4,489.2,22.8,384.6,22.8,256C22.8,127.4,127.4,22.8,256,22.8S489.3,127.4,489.3,256
	C489.3,384.6,384.6,489.2,256,489.2z"/>
<path class="st2" d="M45.5,256c0-124.8,98.5-227,221.9-233c-3.8-0.2-7.6-0.3-11.4-0.3C127.4,22.8,22.8,127.4,22.8,256
	c0,128.6,104.6,233.2,233.3,233.2c3.8,0,7.6-0.1,11.4-0.3C144,483,45.5,380.8,45.5,256z"/>
<g>
	<path class="st3" d="M256,170.7c-47.1,0-85.3,38.3-85.3,85.3c0,47.1,38.3,85.3,85.3,85.3s85.3-38.3,85.3-85.3
		C341.3,208.9,303.1,170.7,256,170.7z M256,318.6c-34.5,0-62.6-28.1-62.6-62.6s28.1-62.6,62.6-62.6s62.6,28.1,62.6,62.6
		S290.5,318.6,256,318.6z"/>
	<polygon class="st3" points="256,108.1 238.9,176.4 256,176.4 273.1,176.4 	"/>
	<polygon class="st3" points="256,403.9 238.9,335.6 256,335.6 273.1,335.6 	"/>
	<polygon class="st3" points="108.1,256 176.4,273.1 176.4,256 176.4,238.9 	"/>
	<polygon class="st3" points="403.9,256 335.6,273.1 335.6,256 335.6,238.9 	"/>
</g>
<polygon class="st4" points="396.8,115.2 235.9,235.9 256,256 276.1,276.1 "/>
<polygon class="st5" points="115.2,396.8 235.9,235.9 256,256 276.1,276.1 "/>
</svg>
