<?xml version="1.0" encoding="utf-8"?>
<!-- Generator: Adobe Illustrator 22.1.0, SVG Export Plug-In . SVG Version: 6.00 Build 0)  -->
<!DOCTYPE svg PUBLIC "-//W3C//DTD SVG 1.1//EN" "http://www.w3.org/Graphics/SVG/1.1/DTD/svg11.dtd">
<svg version="1.1" id="Capa_1" xmlns="http://www.w3.org/2000/svg" xmlns:xlink="http://www.w3.org/1999/xlink" x="0px" y="0px"
	 width="512px" height="512px" viewBox="0 0 512 512" style="enable-background:new 0 0 512 512;" xml:space="preserve">
<style type="text/css">
	.st0{fill:#EEE2CB;}
	.st1{fill:#D0944A;}
	.st2{fill:#512C2A;}
	.st3{fill:#FFFFFF;}
</style>
<path class="st0" d="M182.8,6C89,6,13,84.3,13,180.9s76,174.9,169.8,174.9s169.8-78.3,169.8-174.9S276.5,6,182.8,6z M178,303
	c-68.5,0-124-55.5-124-124S109.5,55,178,55s124,55.5,124,124S246.5,303,178,303z"/>
<polygon class="st1" points="294,322 318,349 314,367 452,503 482,495 499,475 499,446 447,393 380,324 362,317 344,317 316,289 "/>
<g>
	<g>
		<path class="st1" d="M497.3,426.6L386.6,315.9c-9.2-9.2-23-11.2-34.1-5.9l-25.7-25.7C348.5,253.7,360,217.9,360,180
			C360,80.7,279.2,0,180,0S0,80.7,0,180s80.7,180,180,180c37.9,0,73.7-11.5,104.3-33.3l25.7,25.7c-5.2,10.9-3.6,24.7,5.9,34.2
			l110.8,110.8c19.5,19.5,51.2,19.6,70.7,0C516.9,477.8,516.9,446.2,497.3,426.6z M180,340c-88.2,0-160-71.8-160-160
			C20,91.8,91.8,20,180,20s160,71.8,160,160C340,268.3,268.4,340,180,340z M300,314.1c5-4.4,9.7-9.2,14.1-14.1l22.9,22.9l-14.1,14.1
			L300,314.1z M483.2,483.2c-11.7,11.7-30.7,11.7-42.4,0L330,372.4c-3.9-3.9-3.9-10.2,0-14.1l28.3-28.3c0,0,0,0,0,0
			c3.9-3.9,10.2-3.9,14.1,0l110.8,110.8C494.9,452.5,494.9,471.5,483.2,483.2z"/>
	</g>
</g>
<g>
	<g>
		<path class="st2" d="M180,80c-44.1,0-80,35.9-80,80c0,35.7,49.9,93.5,72.9,117c1.9,1.9,4.5,3,7.1,3s5.3-1.1,7.1-3
			c23.7-24.2,72.9-81.4,72.9-117C260,115.9,224.1,80,180,80z"/>
	</g>
</g>
<g>
	<g>
		<path class="st3" d="M180,191.6c-17.4,0-31.6-14.2-31.6-31.6c0-17.4,14.2-31.6,31.6-31.6c17.4,0,31.6,14.2,31.6,31.6
			S197.4,191.6,180,191.6z"/>
	</g>
</g>
</svg>
